<mxfile host="app.diagrams.net" modified="2024-02-26T08:39:36.118Z" agent="Mozilla/5.0 (Windows NT 10.0; Win64; x64) AppleWebKit/537.36 (KHTML, like Gecko) Chrome/122.0.0.0 Safari/537.36" version="23.1.6" etag="A7qVFnG4vuJCtB3QKOUz" type="github">
  <diagram name="第 1 页" id="5H-B-Gvl9qYDMC8yHa47">
    <mxGraphModel>
      <root>
        <mxCell id="0" />
        <mxCell id="1" parent="0" />
      </root>
    </mxGraphModel>
  </diagram>
</mxfile>
